<svg width="623" height="132" viewBox="0 0 623 132" fill="none" xmlns="http://www.w3.org/2000/svg">
<path d="M15.1023 67.1822V92H6.9259V31.687H45.5955V39.0938H15.1023V59.9677H42.0363V67.1822H15.1023ZM186.421 61.6992C186.421 72.6652 184.304 80.5851 180.072 85.4589C175.903 90.3327 169.074 92.7695 159.583 92.7695C149.386 92.7695 142.332 90.525 138.42 86.036C134.573 81.4829 132.649 73.3706 132.649 61.6992C132.649 50.7973 134.765 42.9095 138.997 38.0357C143.23 33.1619 150.092 30.7251 159.583 30.7251C169.779 30.7251 176.801 33.0016 180.649 37.5548C184.497 42.0438 186.421 50.0919 186.421 61.6992ZM143.807 79.1101C145.025 81.2905 146.821 82.8296 149.194 83.7274C151.567 84.6252 155.03 85.0741 159.583 85.0741C166.701 85.0741 171.575 83.3747 174.204 79.9759C176.833 76.5129 178.148 70.4207 178.148 61.6992C178.148 57.3385 177.923 53.7793 177.475 51.0218C177.026 48.2001 176.32 45.9236 175.358 44.1921C174.14 42.0117 172.344 40.4726 169.972 39.5748C167.663 38.6129 164.2 38.1319 159.583 38.1319C152.4 38.1319 147.494 39.8634 144.865 43.3263C142.236 46.7893 140.921 52.9136 140.921 61.6992C140.921 66.06 141.146 69.6512 141.595 72.4728C142.043 75.2304 142.781 77.4428 143.807 79.1101ZM238.922 31.687V39.0938H218.913V92H210.737V39.0938H190.729V31.687H238.922ZM286.176 31.687H294.641L272.228 69.1061V92H264.052V69.1061L241.062 31.687H250.296L268.285 61.7954L286.176 31.687ZM324.796 66.7012L310.174 63.2383C306.134 62.2764 303.216 60.6411 301.421 58.3324C299.625 55.9597 298.727 52.6891 298.727 48.5208C298.727 42.4285 300.459 37.9395 303.922 35.0537C307.449 32.168 312.9 30.7251 320.275 30.7251C323.353 30.7251 326.11 30.8854 328.547 31.206C331.048 31.4625 333.357 31.8794 335.473 32.4565V39.8634C332.78 39.2221 330.215 38.7732 327.778 38.5167C325.341 38.2602 322.808 38.1319 320.178 38.1319C315.24 38.1319 311.778 38.8694 309.79 40.3444C307.802 41.7552 306.808 44.2883 306.808 47.9436C306.808 50.2522 307.256 52.0158 308.154 53.2342C309.116 54.3885 310.655 55.2222 312.772 55.7352L327.297 59.1982C332.427 60.4166 335.826 62.1481 337.493 64.3926C339.225 66.573 340.09 69.9718 340.09 74.5891C340.09 81.1943 338.359 85.8757 334.896 88.6332C331.497 91.3908 326.078 92.7695 318.639 92.7695C314.727 92.7695 310.944 92.513 307.289 92C303.697 91.487 300.844 90.8136 298.727 89.9799V82.2845C301.741 83.1823 304.948 83.8877 308.347 84.4008C311.745 84.8497 315.176 85.0741 318.639 85.0741C323.449 85.0741 326.816 84.3687 328.74 82.9579C330.663 81.547 331.625 78.8216 331.625 74.7815C331.625 72.2804 331.144 70.4848 330.182 69.3946C329.285 68.2403 327.489 67.3425 324.796 66.7012ZM390.006 84.3046V92H349.989V31.687H389.14V39.0938H358.166V57.5629H385.581V64.7774H358.166V84.3046H390.006ZM402.841 92H394.184L418.04 31.687H426.505L450.072 92H441.415L435.932 77.4749H408.324L402.841 92ZM422.08 39.19C421.439 41.4345 420.669 43.8073 419.771 46.3083C418.938 48.8093 418.072 51.3104 417.174 53.8114L411.018 70.2604H433.238L427.082 53.8114C425.799 50.2843 424.773 47.4306 424.004 45.2502C423.298 43.0698 422.657 41.0498 422.08 39.19ZM466.007 70.3566V92H457.831V31.687H478.32C486.849 31.687 492.941 33.1619 496.596 36.1119C500.316 38.9977 502.176 43.8073 502.176 50.5408C502.176 55.7994 500.989 59.9998 498.616 63.1421C496.308 66.2203 492.781 68.3045 488.035 69.3946L503.811 92H493.999L479.378 70.3566H466.007ZM493.903 50.5408C493.903 46.4366 492.717 43.5187 490.344 41.7873C487.971 39.9916 483.963 39.0938 478.32 39.0938H466.007V63.1421H478.32C483.835 63.1421 487.811 62.1481 490.248 60.1601C492.685 58.1721 493.903 54.9657 493.903 50.5408ZM537.018 85.0741C539.648 85.0741 542.405 84.7855 545.291 84.2084C548.241 83.5671 550.966 82.7334 553.467 81.7073V89.018C549.94 90.4288 546.798 91.4228 544.041 92C541.347 92.513 538.526 92.7695 535.576 92.7695C526.341 92.7695 519.832 90.3968 516.048 85.6513C512.265 80.8416 510.373 72.8576 510.373 61.6992C510.373 50.9897 512.553 43.166 516.914 38.2281C521.339 33.2261 528.361 30.7251 537.98 30.7251C540.93 30.7251 543.56 30.7892 545.868 30.9174C548.177 31.0457 550.261 31.2702 552.121 31.5908V38.8053C549.876 38.5488 547.6 38.3884 545.291 38.3243C543.047 38.196 540.61 38.1319 537.98 38.1319C530.798 38.1319 525.796 39.9275 522.974 43.5187C520.153 47.0458 518.742 53.106 518.742 61.6992C518.742 70.4207 520.024 76.5129 522.59 79.9759C525.155 83.3747 529.964 85.0741 537.018 85.0741ZM571.03 92H562.854V31.687H571.03V57.6591H602.582V31.687H610.758V92H602.582V65.1622H571.03V92Z" fill="white"/>
<path d="M88.7949 40.7787C101.204 40.7787 111.26 50.7497 111.26 63.0463C111.26 75.343 101.204 85.3148 88.7949 85.3148C76.3862 85.3148 66.3301 75.3429 66.3301 63.0463C66.3302 50.7497 76.3863 40.7787 88.7949 40.7787Z" stroke="black" stroke-width="0.394124"/>
<path d="M77.1025 46.8218C78.8104 45.1796 84.2362 42.5521 85.7076 42.5521C87.179 42.8148 90.9626 45.0482 92.0136 46.6247C92.0793 46.559 88.8606 51.0258 87.4599 53.4522H78.0666C77.5411 52.9792 76.9054 48.9238 77.1025 46.8218Z" fill="black"/>
<path d="M102.721 45.8364L100.816 48.1355C102.786 50.5659 105.348 56.2151 105.545 56.2808L110.603 58.9083V57.5288C110.209 54.3758 106.031 47.7808 102.721 45.8364Z" fill="black"/>
<path d="M91.9479 61.7328L86.89 70.535L93.196 77.1037L97.8598 75.0674L102.129 72.5713C102.02 69.6591 101.683 63.5852 101.21 63.1123L91.9479 61.7328Z" fill="black"/>
<path d="M73.2926 61.8642C74.6064 65.0829 78.0878 70.535 77.7594 70.535L76.2486 73.688L75.0662 76.7753C73.4897 76.2498 70.2579 74.0033 68.8916 72.3742C68.0376 69.8781 67.3545 64.4917 68.0376 63.178C69.636 62.6525 72.9248 61.654 73.2926 61.8642Z" fill="black"/>
<path d="M94.6411 84.5264C93.7653 84.4169 91.672 83.9484 90.3057 82.9499C87.2841 83.344 83.4085 83.147 81.0438 82.7529V83.7382C83.4742 84.9862 89.8065 86.1029 94.6411 84.5264Z" fill="black"/>
<path d="M110.669 68.4987C109.618 70.3379 107.358 74.0952 106.728 74.4105C106.332 75.6359 105.527 77.9779 105.18 78.4611C107.286 76.4797 110.514 71.0869 110.669 68.4987Z" fill="black"/>
<path d="M105.18 78.4611C105.527 77.9779 106.332 75.6359 106.728 74.4105C107.358 74.0952 109.618 70.3379 110.669 68.4987C110.514 71.0869 107.286 76.4797 105.18 78.4611ZM105.18 78.4611C105.148 78.4911 105.117 78.5204 105.085 78.5489C105.111 78.5437 105.143 78.5132 105.18 78.4611ZM77.1025 46.8218C78.8104 45.1796 84.2362 42.5521 85.7076 42.5521C87.179 42.8148 90.9626 45.0482 92.0136 46.6247C92.0793 46.559 88.8606 51.0258 87.4599 53.4522H78.0666C77.5411 52.9792 76.9054 48.9238 77.1025 46.8218ZM102.721 45.8364L100.816 48.1355C102.786 50.5659 105.348 56.2151 105.545 56.2808L110.603 58.9083V57.5288C110.209 54.3758 106.031 47.7808 102.721 45.8364ZM91.9479 61.7328L86.89 70.535L93.196 77.1037L97.8598 75.0674L102.129 72.5713C102.02 69.6591 101.683 63.5852 101.21 63.1123L91.9479 61.7328ZM73.2926 61.8642C74.6064 65.0829 78.0878 70.535 77.7594 70.535L76.2486 73.688L75.0662 76.7753C73.4897 76.2498 70.2579 74.0033 68.8916 72.3742C68.0376 69.8781 67.3545 64.4917 68.0376 63.178C69.636 62.6525 72.9248 61.654 73.2926 61.8642ZM94.6411 84.5264C93.7653 84.4169 91.672 83.9484 90.3057 82.9499C87.2841 83.344 83.4085 83.147 81.0438 82.7529V83.7382C83.4742 84.9862 89.8065 86.1029 94.6411 84.5264Z" stroke="black" stroke-width="0.131375"/>
<line x1="87.3266" y1="52.8378" x2="92.4503" y2="62.4282" stroke="black" stroke-width="0.394124"/>
<line x1="76.7742" y1="70.3379" x2="88.0724" y2="70.3379" stroke="black" stroke-width="0.394124"/>
<path d="M78.3666 53.0133C78.3666 53.0133 76.4421 55.7253 75.3726 57.564C74.3431 59.334 72.9824 62.2262 72.9824 62.2262" stroke="black" stroke-width="0.394124"/>
<path d="M91.4225 46.6247C91.4225 46.6247 94.6125 46.6243 96.4805 46.9521C98.387 47.2868 101.276 48.2669 101.276 48.2669" stroke="black" stroke-width="0.394124"/>
<path d="M105.601 56.3819L103.509 59.8936L101.134 63.3448" stroke="black" stroke-width="0.394124"/>
<path d="M101.546 72.3226L104.035 73.4909L106.801 74.4246" stroke="black" stroke-width="0.394124"/>
<path d="M93.3933 76.7096C93.3933 76.7096 92.4383 79.159 91.8168 80.3224C91.2038 81.4698 90.1012 83.1779 90.1012 83.1779" stroke="black" stroke-width="0.394124"/>
<path d="M74.278 75.9213C74.278 75.9213 76.7208 78.89 77.8908 80.1253C79.1305 81.4342 81.5036 82.9499 81.5036 82.9499" stroke="black" stroke-width="0.394124"/>
<path d="M67.1128 58.1407C67.0879 58.0347 66.9819 57.969 66.8759 57.9938C66.77 58.0187 66.7042 58.1247 66.7291 58.2307L66.9209 58.1857L67.1128 58.1407ZM68.169 63.5064L68.3609 63.4614L67.1128 58.1407L66.9209 58.1857L66.7291 58.2307L67.9772 63.5514L68.169 63.5064Z" fill="black"/>
<path d="M85.6419 42.8805C85.6419 42.8805 86.0489 41.9339 86.2988 41.6324C86.6007 41.2683 87.2841 40.7785 87.2841 40.7785" stroke="black" stroke-width="0.394124"/>
<path d="M77.5626 46.7561C77.5626 46.7561 75.9021 46.921 74.9351 47.0845C73.8832 47.2623 71.9135 48.3326 71.9135 48.3326" stroke="black" stroke-width="0.394124"/>
<path d="M55.4603 69.109C59.8064 84.602 77.912 94.8904 96.4631 91.2388C115.014 87.5872 125.754 71.6211 121.408 56.128C117.062 40.6349 98.9574 30.3456 80.4062 33.9971C61.855 37.6486 51.1143 53.6158 55.4603 69.109Z" fill="white" fill-opacity="0.2" stroke="black" stroke-width="7.32293"/>
<line x1="109.978" y1="86.672" x2="136.059" y2="113.869" stroke="black" stroke-width="6.76357" stroke-linecap="square"/>
</svg>
